<svg width="500px" height="215px" xmlns="http://www.w3.org/2000/svg" viewBox="186.8962646484375 -66.70748901367188 126.207470703125 283.41497802734375" style="background: rgba(0, 0, 0, 100);" preserveAspectRatio="xMidYMid"><defs><filter id="editing-metal-beveled"><feGaussianBlur stdDeviation="4" in="SourceAlpha" result="blur"></feGaussianBlur><feSpecularLighting surfaceScale="5" specularConstant="0.8" specularExponent="7.5" lighting-color="#fff" in="blur" result="specular"><fePointLight x="-250" y="-50" z="300"></fePointLight></feSpecularLighting><feComposite operator="in" in="specular" in2="SourceAlpha" result="comp"></feComposite><feComposite in="SourceGraphic" in2="comp" operator="arithmetic" k1="0" k2="1" k3="1" k4="0"></feComposite></filter></defs><g filter="url(#editing-metal-beveled)"><g transform="translate(211.11000204086304, 125.80500030517578)"><path d="M14.01-28.61L14.01-28.61Q14.90-17.88 20.49-11.17L20.49-11.17L20.49-11.17Q26.07-4.47 35.69-4.47L35.69-4.47L35.69-4.47Q45.30-4.47 50.73-9.09L50.73-9.09L50.73-9.09Q56.17-13.71 56.17-21.61L56.17-21.61L56.17-21.61Q56.17-29.05 49.91-34.42L49.91-34.42L49.91-34.42Q43.95-39.48 30.69-46.49L30.69-46.49L30.69-46.49Q29.35-47.23 25.78-49.54L25.78-49.54L25.78-49.54Q22.20-51.85 20.79-53.12L20.79-53.12L20.79-53.12Q19.37-54.38 16.84-56.84L16.84-56.84L16.84-56.84Q14.30-59.30 13.26-61.39L13.26-61.39L13.26-61.39Q10.43-67.05 10.43-72.56L10.43-72.56L10.43-72.56Q10.43-85.08 19.15-92.16L19.15-92.16L19.15-92.16Q27.86-99.23 41.27-99.23L41.27-99.23L41.27-99.23Q46.19-99.23 67.65-95.36L67.65-95.36L67.65-95.36Q66.45-82.40 63.77-72.41L63.77-72.41L58.71-71.52L58.71-71.52Q57.66-84.19 55.88-88.95L55.88-88.95L55.88-88.95Q50.36-92.68 41.42-92.68L41.42-92.68L41.42-92.68Q32.48-92.68 27.71-88.66L27.71-88.66L27.71-88.66Q22.95-84.63 22.95-77.48L22.95-77.48L22.95-77.48Q22.95-68.09 37.55-59.90L37.55-59.90L37.55-59.90Q39.63-58.85 45.00-55.95L45.00-55.95L45.00-55.95Q50.36-53.04 53.71-50.96L53.71-50.96L53.71-50.96Q57.07-48.87 61.39-45.30L61.39-45.30L61.39-45.30Q69.88-38.29 69.88-27.86L69.88-27.86L69.88-27.86Q69.88-13.11 59.97-5.36L59.97-5.36L59.97-5.36Q50.06 2.38 35.46 2.38L35.46 2.38L35.46 2.38Q20.86 2.38 8.20-3.13L8.20-3.13L8.20-3.13Q7.90-4.77 7.90-14.01L7.90-14.01L7.90-14.01Q7.90-23.24 8.49-27.27L8.49-27.27L14.01-28.61Z" fill="#444"></path></g></g><style>text {
  font-size: 64px;
  font-family: Arial Black;
  dominant-baseline: central;
  text-anchor: middle;
}</style></svg>